<?xml version="1.0" encoding="utf-8"?>
<!-- Generator: Adobe Illustrator 16.0.0, SVG Export Plug-In . SVG Version: 6.00 Build 0)  -->
<!DOCTYPE svg PUBLIC "-//W3C//DTD SVG 1.1//EN" "http://www.w3.org/Graphics/SVG/1.1/DTD/svg11.dtd">
<svg version="1.1" id="Layer_1" xmlns="http://www.w3.org/2000/svg" xmlns:xlink="http://www.w3.org/1999/xlink" x="0px" y="0px"
	 width="800px" height="800px" viewBox="0 0 800 800" enable-background="new 0 0 800 800" xml:space="preserve">
<g id="Layer_2" display="none">
	<g display="inline">
		<path fill="#FFFFFF" d="M414.172,18.808c202.4,0,305.159,118.328,305.159,342.527c0,147.91-7.784,397.019-12.456,404.803
			c-4.672,9.345-113.657,0-113.657,0l-7.784-68.505c-34.253,35.812-102.758,82.521-208.63,82.521
			c-191.504,0-272.465-112.102-272.465-228.871c0-149.467,122.999-244.439,286.478-244.439c91.859,0,157.251,31.138,191.502,68.505
			c0-155.694-34.251-228.871-183.719-228.871c-137.011,0-171.263,88.746-185.275,91.86c-12.456,1.557-85.631-56.05-84.075-63.835
			C135.478,144.92,227.337,18.808,414.172,18.808z M404.829,680.508c115.213,0,177.489-66.949,177.489-137.011
			c0-88.745-76.288-138.566-180.604-138.566c-102.76,0-172.821,63.833-172.821,141.682
			C228.895,627.573,302.07,680.508,404.829,680.508z"/>
	</g>
</g>
<g id="Layer_1_1_">
	<g>
		<path fill="#FFFFFF" d="M376.926,285.019c129.887,0,195.827,75.933,195.827,219.805c0,94.916-4.996,254.773-7.993,259.771
			c-2.997,5.994-72.936,0-72.936,0l-4.995-43.962c-21.98,22.98-65.941,52.953-133.882,52.953
			c-122.891,0-174.845-71.936-174.845-146.869c0-95.915,78.93-156.86,183.837-156.86c58.947,0,100.909,19.981,122.892,43.961
			c0-99.911-21.981-146.87-117.896-146.87c-87.921,0-109.901,56.95-118.894,58.947c-7.993,0.999-54.952-35.969-53.953-40.963
			C198.084,365.947,257.032,285.019,376.926,285.019z M370.932,709.643c73.936,0,113.899-42.962,113.899-87.922
			c0-56.948-48.957-88.921-115.897-88.921c-65.941,0-110.901,40.964-110.901,90.919C258.031,675.673,304.99,709.643,370.932,709.643
			z"/>
	</g>
</g>
<g id="Layer_3" display="none">
	<g display="inline">
		<path d="M294,702.649c0,17.982,1.999,49.954,1.999,67.938c-4.996,1.998-74.934,3.996-75.933,0
			c-4.996-27.976-20.981-729.354-8.992-747.338c8.992-9.991,82.926-4.996,86.923,0.999c2.998,3.997,2.998,272.758,0.999,338.7
			c24.978-41.963,85.924-73.935,158.859-73.935c131.883,1.998,213.811,104.907,213.811,239.787
			c0,167.853-98.912,247.781-222.803,247.781C371.931,776.584,317.979,736.619,294,702.649z M436.873,369.944
			C356.944,369.944,293,418.9,293,529.802c0,93.917,46.958,164.854,142.874,164.854c80.929,0,148.868-42.962,148.868-161.856
			C584.742,431.889,523.796,369.944,436.873,369.944z"/>
	</g>
</g>
<g id="Layer_4" display="none">
	<g display="inline">
		<path d="M418.889,699.651c58.948,0,101.91-33.971,115.897-43.961c5.995-3.996,26.977,26.977,39.965,54.95
			c-27.976,36.969-85.924,68.939-157.86,68.939c-169.85,0-233.792-124.89-233.792-245.782c0-120.892,78.93-244.783,230.796-244.783
			c99.91,0,158.858,46.958,161.855,56.949c2.997,10.99-18.982,69.938-30.973,70.938c-8.992,0-56.949-44.96-125.89-44.96
			c-83.925,0-146.87,57.948-146.87,165.853C272.019,672.676,367.935,699.651,418.889,699.651z"/>
	</g>
</g>
<g id="Layer_5" display="none">
	<g display="inline">
		<path d="M183.098,530.802c0-132.883,90.92-237.79,227.799-239.788c68.938,0,126.888,34.969,151.864,72.936
			c0-98.913,1.998-336.702,5.994-340.698c4.996-5.995,79.93-8.992,90.92-1.998c0.999,0.999-10.99,719.362-13.986,746.339
			c-0.999,2.997-67.94,4.995-79.931,0.999l-2.997-68.938c-23.979,33.971-75.933,73.935-154.862,73.935
			C284.008,773.586,183.098,693.657,183.098,530.802z M424.884,691.659c96.914,0,142.873-66.941,142.873-160.857
			c0-109.902-66.939-157.86-144.871-157.86c-87.922,0-147.869,60.946-147.869,160.857
			C275.017,652.693,345.954,691.659,424.884,691.659z"/>
	</g>
</g>
</svg>
