<?xml version="1.0" encoding="utf-8"?>
<!-- Generator: Adobe Illustrator 16.0.0, SVG Export Plug-In . SVG Version: 6.00 Build 0)  -->
<!DOCTYPE svg PUBLIC "-//W3C//DTD SVG 1.1//EN" "http://www.w3.org/Graphics/SVG/1.1/DTD/svg11.dtd">
<svg version="1.1" id="Layer_1" xmlns="http://www.w3.org/2000/svg" xmlns:xlink="http://www.w3.org/1999/xlink" x="0px" y="0px"
	 width="800px" height="800px" viewBox="0 0 800 800" enable-background="new 0 0 800 800" xml:space="preserve">
<g id="Layer_2" display="none">
	<g display="inline">
		<path fill="#FFFFFF" d="M414.172,18.808c202.4,0,305.159,118.328,305.159,342.527c0,147.91-7.784,397.019-12.456,404.803
			c-4.672,9.345-113.657,0-113.657,0l-7.784-68.505c-34.253,35.812-102.758,82.521-208.63,82.521
			c-191.504,0-272.465-112.102-272.465-228.871c0-149.467,122.999-244.439,286.478-244.439c91.859,0,157.251,31.138,191.502,68.505
			c0-155.694-34.251-228.871-183.719-228.871c-137.011,0-171.263,88.746-185.275,91.86c-12.456,1.557-85.631-56.05-84.075-63.835
			C135.478,144.92,227.337,18.808,414.172,18.808z M404.829,680.508c115.213,0,177.489-66.949,177.489-137.011
			c0-88.745-76.288-138.566-180.604-138.566c-102.76,0-172.821,63.833-172.821,141.682
			C228.895,627.573,302.07,680.508,404.829,680.508z"/>
	</g>
</g>
<g id="Layer_1_1_" display="none">
	<text transform="matrix(1 0 0 1 138.1377 769.5898)" display="inline" font-family="'MikadoRegular'" font-size="999.1075">a</text>
</g>
<g id="Layer_4" display="none">
	<g display="inline">
		<path d="M418.889,699.651c58.948,0,101.91-33.971,115.897-43.961c5.995-3.996,26.977,26.977,39.965,54.95
			c-27.976,36.969-85.924,68.939-157.86,68.939c-169.85,0-233.792-124.89-233.792-245.782c0-120.892,78.93-244.783,230.796-244.783
			c99.91,0,158.858,46.958,161.855,56.949c2.997,10.99-18.982,69.938-30.973,70.938c-8.992,0-56.949-44.96-125.89-44.96
			c-83.925,0-146.87,57.948-146.87,165.853C272.019,672.676,367.935,699.651,418.889,699.651z"/>
	</g>
</g>
<g id="Layer_5" display="none">
	<g display="inline">
		<path d="M183.098,530.802c0-132.883,90.92-237.79,227.799-239.788c68.938,0,126.888,34.969,151.864,72.936
			c0-98.913,1.998-336.702,5.994-340.698c4.996-5.995,79.93-8.992,90.92-1.998c0.999,0.999-10.99,719.362-13.986,746.339
			c-0.999,2.997-67.94,4.995-79.931,0.999l-2.997-68.938c-23.979,33.971-75.933,73.935-154.862,73.935
			C284.008,773.586,183.098,693.657,183.098,530.802z M424.884,691.659c96.914,0,142.873-66.941,142.873-160.857
			c0-109.902-66.939-157.86-144.871-157.86c-87.922,0-147.869,60.946-147.869,160.857
			C275.017,652.693,345.954,691.659,424.884,691.659z"/>
	</g>
</g>
<g id="Layer_4_1_">
	<g>
		<path fill="#FFFFFF" d="M418.889,699.651c58.948,0,101.91-33.971,115.897-43.961c5.995-3.996,26.977,26.977,39.965,54.95
			c-27.976,36.969-85.924,68.939-157.86,68.939c-169.85,0-233.792-124.89-233.792-245.782c0-120.892,78.93-244.783,230.796-244.783
			c99.91,0,158.858,46.958,161.855,56.949c2.997,10.99-18.982,69.938-30.973,70.938c-8.992,0-56.949-44.96-125.89-44.96
			c-83.925,0-146.87,57.948-146.87,165.853C272.019,672.676,367.935,699.651,418.889,699.651z"/>
	</g>
</g>
</svg>
