<?xml version="1.0" encoding="utf-8"?>
<!-- Generator: Adobe Illustrator 16.0.0, SVG Export Plug-In . SVG Version: 6.00 Build 0)  -->
<!DOCTYPE svg PUBLIC "-//W3C//DTD SVG 1.1//EN" "http://www.w3.org/Graphics/SVG/1.1/DTD/svg11.dtd">
<svg version="1.1" xmlns="http://www.w3.org/2000/svg" xmlns:xlink="http://www.w3.org/1999/xlink" x="0px" y="0px" width="800px"
	 height="800px" viewBox="0 0 800 800" enable-background="new 0 0 800 800" xml:space="preserve">
<g id="Layer_2" display="none">
	<g display="inline">
		<path fill="#FFFFFF" d="M414.172,18.808c202.4,0,305.159,118.328,305.159,342.527c0,147.91-7.784,397.019-12.456,404.803
			c-4.672,9.344-113.657,0-113.657,0l-7.784-68.505c-34.253,35.811-102.758,82.52-208.63,82.52
			c-191.504,0-272.465-112.101-272.465-228.871c0-149.467,122.999-244.439,286.477-244.439c91.86,0,157.251,31.138,191.502,68.505
			c0-155.694-34.251-228.871-183.718-228.871c-137.011,0-171.263,88.746-185.276,91.86c-12.456,1.557-85.631-56.05-84.075-63.835
			C135.478,144.92,227.337,18.808,414.172,18.808z M404.829,680.508c115.213,0,177.489-66.949,177.489-137.011
			c0-88.745-76.288-138.566-180.603-138.566c-102.76,0-172.821,63.833-172.821,141.681
			C228.895,627.573,302.07,680.508,404.829,680.508z"/>
	</g>
</g>
<g id="Layer_1">
	<g>
		<path fill="#FFFFFF" d="M659.926,298.793c0,146.871-84.925,240.787-222.803,242.785c-69.938,0-129.885-27.975-152.865-68.938
			c0,99.91,2.998,273.756-0.999,277.754c-4.996,5.994-78.93,8.99-88.921,2.996c-0.999-0.998,0-675.401,9.991-699.38
			c0.999-2.997,79.929,4.996,79.929,4.996c0,17.984,0.999,48.957,0.999,67.94c20.981-36.967,73.935-71.936,153.865-71.936
			C565.01,55.01,659.926,136.937,659.926,298.793z M424.135,140.933c-97.914,0-143.873,61.945-143.873,155.862
			c0,110.902,67.94,164.855,143.873,164.855c94.916,0,142.874-61.946,142.874-162.857
			C567.009,180.898,502.066,140.933,424.135,140.933z"/>
	</g>
</g>
<g id="Layer_3" display="none">
	<g display="inline">
		<path d="M294,702.649c0,17.983,1.999,49.955,1.999,67.939c-4.996,1.998-74.934,3.996-75.933,0
			c-4.996-27.976-20.981-729.354-8.992-747.338c8.992-9.991,82.926-4.996,86.923,0.999c2.998,3.997,2.998,272.758,0.999,338.7
			c24.978-41.963,85.924-73.935,158.859-73.935c131.883,1.998,213.811,104.907,213.811,239.787
			c0,167.852-98.912,247.781-222.803,247.781C371.931,776.584,317.979,736.619,294,702.649z M436.873,369.944
			C356.944,369.944,293,418.9,293,529.802c0,93.917,46.958,164.854,142.874,164.854c80.929,0,148.868-42.962,148.868-161.856
			C584.742,431.889,523.796,369.944,436.873,369.944z"/>
	</g>
</g>
<g id="Layer_4" display="none">
	<g display="inline">
		<path d="M418.889,699.651c58.948,0,101.91-33.97,115.897-43.961c5.995-3.996,26.977,26.977,39.965,54.951
			c-27.976,36.968-85.924,68.939-157.86,68.939c-169.85,0-233.793-124.89-233.793-245.782s78.93-244.783,230.796-244.783
			c99.911,0,158.859,46.958,161.856,56.949c2.997,10.99-18.983,69.938-30.973,70.938c-8.992,0-56.949-44.96-125.889-44.96
			c-83.925,0-146.87,57.948-146.87,165.853C272.019,672.676,367.935,699.651,418.889,699.651z"/>
	</g>
</g>
<g id="Layer_5" display="none">
	<g display="inline">
		<path d="M183.098,530.802c0-132.883,90.92-237.79,227.799-239.788c68.938,0,126.888,34.969,151.865,72.936
			c0-98.913,1.998-336.702,5.994-340.698c4.996-5.995,79.93-8.992,90.92-1.998c0.999,0.999-10.99,719.362-13.987,746.339
			c-0.999,2.997-67.94,4.995-79.93,0.999l-2.997-68.939c-23.979,33.971-75.933,73.935-154.863,73.935
			C284.008,773.586,183.098,693.657,183.098,530.802z M424.884,691.659c96.914,0,142.873-66.941,142.873-160.857
			c0-109.903-66.94-157.86-144.871-157.86c-87.922,0-147.869,60.946-147.869,160.857
			C275.017,652.693,345.954,691.659,424.884,691.659z"/>
	</g>
</g>
</svg>
